<?xml version="1.0" standalone="no"?>
<!DOCTYPE svg PUBLIC "-//W3C//DTD SVG 20010904//EN"
 "http://www.w3.org/TR/2001/REC-SVG-20010904/DTD/svg10.dtd">
<svg version="1.0" xmlns="http://www.w3.org/2000/svg"
 width="1774.000000pt" height="887.000000pt" viewBox="0 0 1774.000000 887.000000"
 preserveAspectRatio="xMidYMid meet">

<g transform="translate(0.000000,887.000000) scale(0.100000,-0.100000)"
fill="#000000" stroke="none">
<path d="M1240 5625 c0 -6 65 -86 345 -430 307 -377 675 -836 1020 -1270 505
-638 488 -618 505 -597 27 35 139 172 362 444 121 148 218 272 216 278 -3 9
-288 356 -345 419 -17 20 -33 34 -35 31 -5 -6 -188 -231 -198 -243 -4 -4 -83
88 -177 205 -93 117 -253 315 -354 439 -101 124 -276 339 -389 477 l-205 252
-372 0 c-205 0 -373 -2 -373 -5z"/>
<path d="M2607 5618 c6 -7 215 -269 464 -583 250 -313 491 -616 534 -671 94
-119 700 -873 743 -924 l30 -35 24 30 c12 16 145 178 293 360 149 182 448 552
665 823 l394 492 1031 0 c712 0 1042 -3 1070 -11 57 -15 137 -100 154 -162 33
-116 -20 -235 -129 -293 -33 -18 -80 -19 -873 -24 l-838 -5 73 -60 c93 -76
848 -707 1211 -1013 l277 -233 405 2 c352 2 436 6 396 21 -5 2 -212 172 -460
378 l-451 375 152 6 c269 12 424 79 587 256 86 93 160 232 186 348 26 115 17
314 -19 415 -72 202 -231 374 -424 454 -154 65 -54 60 -1418 64 l-1241 3 -169
-208 c-267 -329 -564 -692 -733 -896 l-156 -188 -20 24 c-70 85 -674 833 -830
1029 l-190 238 -374 0 c-297 0 -371 -3 -364 -12z"/>
<path d="M10251 4418 l-1 -478 85 0 85 0 0 475 0 475 -47 0 -47 0 33 -31 c26
-23 36 -27 42 -17 5 8 8 -14 7 -52 0 -36 -3 -55 -5 -42 -5 25 -13 28 -31 10
-8 -8 -15 -8 -25 0 -10 9 -12 24 -7 58 l7 46 -43 -6 c-38 -5 -43 -3 -47 17 -2
12 -5 -193 -6 -455z"/>
<path d="M11297 4874 c-72 -17 -108 -36 -158 -81 -91 -82 -99 -125 -99 -525
l0 -328 88 0 87 0 -3 195 -3 195 586 0 585 0 0 80 0 80 -352 3 c-194 1 -434 2
-533 2 -290 1 -285 0 -285 33 0 74 42 146 104 180 28 15 85 17 594 20 l562 3
0 80 0 79 -77 -1 c-53 0 -72 -3 -58 -9 11 -5 35 -9 53 -9 17 -1 32 -5 32 -10
0 -5 9 -11 20 -14 26 -7 25 -31 -2 -57 -24 -22 -43 -26 -53 -9 -4 6 -13 8 -20
5 -7 -2 -32 5 -55 17 -36 17 -40 22 -24 27 13 5 3 9 -33 14 -60 9 -97 1 -89
-20 3 -9 -7 -20 -26 -30 -27 -14 -39 -15 -84 -4 -29 7 -66 10 -83 7 -17 -4
-31 -3 -31 1 0 14 75 42 111 42 19 0 52 3 74 7 40 7 40 7 10 13 -29 6 -29 7
15 17 34 8 -55 11 -375 11 -326 0 -433 -3 -478 -14z m378 -4 c4 -6 -18 -10
-59 -10 -37 0 -66 4 -66 10 0 6 26 10 59 10 33 0 63 -4 66 -10z m263 -127
c-10 -2 -26 -2 -35 0 -10 3 -2 5 17 5 19 0 27 -2 18 -5z m59 1 c-3 -3 -12 -4
-19 -1 -8 3 -5 6 6 6 11 1 17 -2 13 -5z m220 0 c-3 -3 -12 -4 -19 -1 -8 3 -5
6 6 6 11 1 17 -2 13 -5z m91 -1 c-16 -2 -40 -2 -55 0 -16 2 -3 4 27 4 30 0 43
-2 28 -4z"/>
<path d="M13158 4883 c17 -2 47 -2 65 0 17 2 3 4 -33 4 -36 0 -50 -2 -32 -4z"/>
<path d="M13049 4830 c-3 -8 -7 -212 -8 -452 l-2 -438 85 0 86 0 0 385 c0 212
3 385 6 385 3 0 69 -45 145 -100 76 -55 145 -97 152 -94 7 2 22 -6 33 -18 l19
-23 -21 18 c-11 9 -25 17 -30 17 -11 0 47 -49 59 -50 5 0 5 5 1 12 -4 7 -3 8
5 4 6 -4 9 -11 6 -16 -3 -5 43 -43 102 -86 60 -43 187 -135 283 -204 96 -69
207 -149 246 -178 l72 -52 106 0 106 0 -1 268 c-1 147 -3 259 -6 249 -3 -10
-15 -28 -28 -41 -27 -27 -63 -25 -87 7 l-18 22 -7 -25 c-6 -18 -10 0 -14 60
-3 56 -6 11 -7 -132 -1 -120 -6 -218 -10 -218 -5 0 -29 14 -53 32 -93 68 -537
386 -550 393 -11 7 -12 6 -2 -6 9 -12 2 -14 -48 -16 -49 -1 -59 2 -59 15 0 27
45 43 69 25 12 -8 21 -12 21 -9 0 3 -38 32 -85 65 -78 56 -87 60 -111 49 -17
-8 -24 -18 -21 -29 3 -13 0 -16 -14 -14 -10 2 -22 -1 -25 -7 -4 -7 -2 -8 4 -4
7 4 12 3 12 -2 0 -6 -17 -12 -37 -14 -32 -4 -47 2 -100 40 -34 25 -60 49 -56
55 8 14 -19 28 -41 21 -12 -4 -16 -2 -12 5 5 7 -5 11 -28 11 -24 0 -36 -5 -36
-14 0 -8 -7 -16 -15 -20 -10 -3 -15 1 -15 11 0 13 -3 14 -11 6 -6 -6 -18 -9
-25 -6 -8 3 -15 -1 -16 -8 -1 -8 -4 20 -7 61 -3 41 -9 68 -12 60z m150 -267
c-1 -24 -3 -29 -6 -15 -2 12 -11 22 -19 22 -20 0 -17 18 4 23 9 3 18 5 20 6 1
0 1 -16 1 -36z m397 -40 c-2 -9 -8 -19 -14 -21 -14 -4 -15 0 -6 22 8 21 23 20
20 -1z"/>
<path d="M13071 4804 c0 -11 3 -14 6 -6 3 7 2 16 -1 19 -3 4 -6 -2 -5 -13z"/>
<path d="M13353 4794 c-21 -22 -4 -46 28 -39 15 4 37 1 48 -5 36 -19 23 -2
-22 28 -34 24 -44 27 -54 16z"/>
<path d="M13500 4700 c0 -5 5 -10 11 -10 5 0 7 5 4 10 -3 6 -8 10 -11 10 -2 0
-4 -4 -4 -10z"/>
<path d="M5744 4350 c-115 -138 -211 -255 -212 -260 -3 -7 161 -10 512 -8 284
1 515 5 514 9 -3 7 -578 492 -598 504 -4 3 -102 -108 -216 -245z"/>
<path d="M15094 4350 c2 -218 6 -237 72 -310 21 -23 61 -54 88 -68 l51 -27
540 0 c528 0 541 0 586 21 63 29 114 77 139 130 24 49 23 54 -13 58 -13 2 -47
11 -75 21 -37 14 -49 22 -45 34 3 9 -7 -3 -21 -26 -17 -26 -42 -49 -69 -62
-42 -20 -57 -21 -498 -21 -421 0 -457 2 -495 19 -23 10 -52 34 -65 52 -22 31
-24 47 -30 184 -3 83 -6 117 -7 77 -2 -65 -4 -74 -24 -81 -19 -7 -28 -3 -50
20 -15 16 -32 29 -37 29 -6 0 -11 6 -11 13 -1 7 -7 4 -15 -7 -13 -17 -15 -11
-18 60 -2 44 -3 -9 -3 -116z"/>
<path d="M9357 4170 c-4 -63 -7 -197 -7 -297 l0 -183 30 0 30 0 -1 263 c-1
144 -5 273 -9 287 -5 15 -9 19 -11 10 -1 -8 -3 -19 -4 -25 -2 -5 -4 -17 -5
-25 -2 -8 -6 8 -9 35 -5 42 -7 32 -14 -65z"/>
<path d="M16592 4185 c0 -16 2 -22 5 -12 2 9 2 23 0 30 -3 6 -5 -1 -5 -18z"/>
</g>
</svg>
